<svg xmlns="http://www.w3.org/2000/svg" width="18" height="11" viewBox="0 0 18 11">
    <g fill="none" fill-rule="evenodd">
        <g fill="#232A31" fill-rule="nonzero">
            <g>
                <g>
                    <path d="M2 7c1.105 0 2 .895 2 2 0 1.104-.895 2-2 2-1.104 0-2-.896-2-2 0-1.105.896-2 2-2zm7 0c1.105 0 2 .895 2 2 0 1.104-.895 2-2 2-1.104 0-2-.896-2-2 0-1.105.896-2 2-2zm7 0c1.105 0 2 .895 2 2 0 1.104-.895 2-2 2-1.104 0-2-.896-2-2 0-1.105.896-2 2-2zM2 0c1.105 0 2 .896 2 2s-.895 2-2 2C.896 4 0 3.104 0 2s.896-2 2-2zm7 0c1.105 0 2 .896 2 2s-.895 2-2 2c-1.104 0-2-.896-2-2s.896-2 2-2zm7 0c1.105 0 2 .896 2 2s-.895 2-2 2c-1.104 0-2-.896-2-2s.896-2 2-2z" transform="translate(-49 -158) translate(30 136) translate(19 22)"/>
                </g>
            </g>
        </g>
    </g>
</svg>
