<!-- copied from yahoo.com -->
<svg xmlns="http://www.w3.org/2000/svg" width="18" height="18" viewBox="0 0 18 18"><g fill="none" fill-rule="evenodd"><g fill="#188FFF" fill-rule="nonzero"><g><g><path d="M12 16.125c.414 0 .75.336.75.75s-.336.75-.75.75H6c-.414 0-.75-.336-.75-.75s.336-.75.75-.75h6zm2.625-9.375c.414 0 .75.336.75.75v.75c0 3.52-2.854 6.375-6.375 6.375-3.52 0-6.375-2.854-6.375-6.375V7.5c0-.414.336-.75.75-.75s.75.336.75.75v.75c0 2.693 2.183 4.875 4.875 4.875 2.693 0 4.875-2.182 4.875-4.875V7.5c0-.414.336-.75.75-.75zM9 .375c1.864 0 3.375 1.51 3.375 3.375v4.5c0 1.864-1.51 3.375-3.375 3.375-1.864 0-3.375-1.51-3.375-3.375v-4.5C5.625 1.886 7.135.375 9 .375zm0 1.5c-1.035 0-1.875.84-1.875 1.875v4.5c0 1.036.84 1.875 1.875 1.875 1.035 0 1.875-.84 1.875-1.875v-4.5c0-1.036-.84-1.875-1.875-1.875z" transform="translate(-856 -27) translate(333 16) translate(523 11)"></path></g></g></g></g></svg>